<svg data-v-423bf9ae="" xmlns="http://www.w3.org/2000/svg" viewBox="0 0 186.86980487453502 60" class="font"><!----><!----><!----><g data-v-423bf9ae="" id="668f0fa4-e527-4f9a-8c51-545acc5dbe9f" fill="white" transform="matrix(5.540166244014879,0,0,5.540166244014879,-2.7146815200892576,-23.601110421221115)"><path d="M4.96 14.92L4.96 5.96L7.48 5.96L7.48 4.26L0.49 4.26L0.49 5.96L3.01 5.96L3.01 14.92ZM9.49 9.63C9.49 8.37 9.83 8.01 10.79 8.01C11.76 8.01 12.10 8.37 12.10 9.63L12.10 11.80C12.10 13.06 11.76 13.44 10.79 13.44C9.83 13.44 9.49 13.06 9.49 11.80ZM10.79 6.34C8.61 6.34 7.60 7.34 7.60 9.65L7.60 11.79C7.60 14.11 8.61 15.09 10.79 15.09C12.98 15.09 13.99 14.11 13.99 11.79L13.99 9.65C13.99 7.34 12.98 6.34 10.79 6.34ZM19.87 12.40C19.82 13.13 19.52 13.54 18.55 13.54C17.58 13.54 17.21 13.02 17.21 11.98L17.21 11.28L21.69 11.28L21.69 9.55C21.69 7.34 20.66 6.34 18.55 6.34C16.39 6.34 15.36 7.49 15.36 9.58L15.36 11.79C15.36 14.11 16.38 15.09 18.56 15.09C20.72 15.09 21.56 14.15 21.62 12.40ZM18.56 7.91C19.53 7.91 19.89 8.43 19.89 9.53L19.89 9.84L17.21 9.84L17.21 9.59C17.21 8.39 17.58 7.91 18.56 7.91ZM26.08 13.38C25.30 13.38 25.00 13.08 25.00 12.01L25.00 8.55L26.68 8.55L26.68 6.92L25.00 6.92L25.00 4.97L23.07 4.97L23.07 11.96C23.07 14.07 23.69 15.09 25.63 15.09C26.07 15.09 26.50 15.04 26.68 14.99L26.68 13.31C26.52 13.36 26.29 13.38 26.08 13.38ZM32.55 14.92L34.22 14.92L34.22 9.24C34.22 7.07 33.00 6.34 31.21 6.34C29.23 6.34 28.20 7.17 28.20 9.24L29.89 9.24C29.89 8.26 30.34 7.90 31.19 7.90C32.02 7.90 32.42 8.32 32.42 9.28L32.42 10.14C32.03 10.09 31.57 10.05 31.21 10.05C28.91 10.05 27.94 11.00 27.94 12.70C27.94 14.25 28.94 15.09 30.37 15.09C31.30 15.09 32.03 14.80 32.48 14.28ZM32.42 12.05C32.42 13.01 31.74 13.54 30.97 13.54C30.20 13.54 29.81 13.19 29.81 12.54C29.81 11.77 30.23 11.37 31.36 11.37C31.63 11.37 32.13 11.40 32.42 11.45Z"></path></g><!----><!----></svg>