<svg data-v-fde0c5aa="" xmlns="http://www.w3.org/2000/svg" viewBox="0 0 300 300" class="iconAboveSlogan"><!----><defs data-v-fde0c5aa=""><linearGradient data-v-fde0c5aa="" gradientTransform="rotate(25)" id="f77bbd50-7a65-4c86-81d8-b3360603eb2b" x1="0%" y1="0%" x2="100%" y2="0%"><stop data-v-fde0c5aa="" offset="0%" stop-color="#EB4C00" stop-opacity="1"></stop><stop data-v-fde0c5aa="" offset="100%" stop-color="#F2A900" stop-opacity="1"></stop></linearGradient></defs><rect data-v-fde0c5aa="" fill="url(#f77bbd50-7a65-4c86-81d8-b3360603eb2b)" x="0" y="0" width="300px" height="300px" class="logo-background-square"></rect><defs data-v-fde0c5aa=""><!----></defs><g data-v-fde0c5aa="" id="fd7e69cf-d58f-4c9d-996d-9bbf08627afc" fill="#ffffff" transform="matrix(7.031600669501266,0,0,7.031600669501266,27.96657192315263,136.05785288352416)"><path d="M4.96 14.92L4.96 5.96L7.48 5.96L7.48 4.26L0.49 4.26L0.49 5.96L3.01 5.96L3.01 14.92ZM9.49 9.63C9.49 8.37 9.83 8.01 10.79 8.01C11.76 8.01 12.10 8.37 12.10 9.63L12.10 11.80C12.10 13.06 11.76 13.44 10.79 13.44C9.83 13.44 9.49 13.06 9.49 11.80ZM10.79 6.34C8.61 6.34 7.60 7.34 7.60 9.65L7.60 11.79C7.60 14.11 8.61 15.09 10.79 15.09C12.98 15.09 13.99 14.11 13.99 11.79L13.99 9.65C13.99 7.34 12.98 6.34 10.79 6.34ZM19.87 12.40C19.82 13.13 19.52 13.54 18.55 13.54C17.58 13.54 17.21 13.02 17.21 11.98L17.21 11.28L21.69 11.28L21.69 9.55C21.69 7.34 20.66 6.34 18.55 6.34C16.39 6.34 15.36 7.49 15.36 9.58L15.36 11.79C15.36 14.11 16.38 15.09 18.56 15.09C20.72 15.09 21.56 14.15 21.62 12.40ZM18.56 7.91C19.53 7.91 19.89 8.43 19.89 9.53L19.89 9.84L17.21 9.84L17.21 9.59C17.21 8.39 17.58 7.91 18.56 7.91ZM26.08 13.38C25.30 13.38 25.00 13.08 25.00 12.01L25.00 8.55L26.68 8.55L26.68 6.92L25.00 6.92L25.00 4.97L23.07 4.97L23.07 11.96C23.07 14.07 23.69 15.09 25.63 15.09C26.07 15.09 26.50 15.04 26.68 14.99L26.68 13.31C26.52 13.36 26.29 13.38 26.08 13.38ZM32.55 14.92L34.22 14.92L34.22 9.24C34.22 7.07 33.00 6.34 31.21 6.34C29.23 6.34 28.20 7.17 28.20 9.24L29.89 9.24C29.89 8.26 30.34 7.90 31.19 7.90C32.02 7.90 32.42 8.32 32.42 9.28L32.42 10.14C32.03 10.09 31.57 10.05 31.21 10.05C28.91 10.05 27.94 11.00 27.94 12.70C27.94 14.25 28.94 15.09 30.37 15.09C31.30 15.09 32.03 14.80 32.48 14.28ZM32.42 12.05C32.42 13.01 31.74 13.54 30.97 13.54C30.20 13.54 29.81 13.19 29.81 12.54C29.81 11.77 30.23 11.37 31.36 11.37C31.63 11.37 32.13 11.40 32.42 11.45Z"></path></g><defs data-v-fde0c5aa=""><!----></defs><g data-v-fde0c5aa="" id="76ba21a1-835e-4e23-87d1-0b59df7a8afa" stroke="none" fill="#ffffff" transform="matrix(3.1664069796875696,0,0,3.1664069796875696,68.13887606009398,12.696069135435469)"><g clip-rule="evenodd"><path d="M2.682 24.413c3.18 6.681 2.694 14.226 14.442 15.195 4.364.164 13.146-.214 17.512 0 13.796 0 11.426-8.834 14.388-15.303-17.081 7.113-32.009 6.304-46.342.108z"></path><path d="M4.891 20.531c4.419-5.063 9.271-8.836 15.359-9.052 3.07 2.642 6.411 3.504 10.396 0 5.877.7 10.941 3.772 16.333 9.593-.594 1.185-2.481 2.262-3.665.539-1.619-2.264-5.713-1.024-5.337 1.132.377 2.208-4.688 3.178-5.388.808-.7-2.369-5.604-2.048-5.929.807-.271 2.803-6.089 2.319-5.766-.214.271-2.532-5.011-3.071-5.497-.863-.485 2.156-5.711 2.425-5.982-.593-.322-3.071-3.931-2.263-3.931-2.263s-.27-.001-.593.106zM17.124 40.471h17.512v2.264H17.124z"></path><path d="M25.476 12.501c1.887 0 3.45-.859 3.45-1.938s-1.563-1.94-3.45-1.94c-1.94 0-3.504.861-3.504 1.94s1.563 1.938 3.504 1.938z"></path></g></g><defs data-v-fde0c5aa=""><!----></defs><g data-v-fde0c5aa="" id="3d50f7dd-da2d-433d-88c0-ec1e44e2e7fa" fill="#ffffff" transform="matrix(0.7419784410060501,0,0,0.7419784410060501,60.85128827433392,249.7161792392957)"><path d="M0.28 3.71L0.28 3.71L0.28 3.71Q0.28 3.51 0.66 3.51L0.66 3.51L0.66 3.51Q0.74 3.51 1.20 3.54L1.20 3.54L1.20 3.54Q1.65 3.56 2.20 3.56L2.20 3.56L2.20 3.56Q2.59 3.56 2.98 3.54L2.98 3.54L2.98 3.54Q3.37 3.51 3.40 3.51L3.40 3.51L3.40 3.51Q3.53 3.51 3.56 3.55L3.56 3.55L3.56 3.55Q3.60 3.58 3.60 3.68L3.60 3.68L3.60 3.68Q3.60 3.77 3.30 3.92L3.30 3.92L3.30 3.92Q3.00 4.07 3.00 4.34L3.00 4.34L3.00 4.34Q3.00 4.47 3.05 4.65L3.05 4.65L3.05 4.65Q3.11 4.83 3.28 5.22L3.28 5.22L3.28 5.22Q3.44 5.61 3.63 6.03L3.63 6.03L3.63 6.03Q3.82 6.45 4.21 7.33L4.21 7.33L4.21 7.33Q4.61 8.20 4.98 9.07L4.98 9.07L4.98 9.07Q5.08 9.30 5.27 9.74L5.27 9.74L5.27 9.74Q5.46 10.18 5.58 10.46L5.58 10.46L5.58 10.46Q5.70 10.74 5.84 11.05L5.84 11.05L5.84 11.05Q5.98 11.37 6.07 11.52L6.07 11.52L6.07 11.52Q6.16 11.68 6.20 11.68L6.20 11.68L6.20 11.68Q6.26 11.68 6.65 10.81L6.65 10.81L6.65 10.81Q7.04 9.94 7.35 9.17L7.35 9.17L7.35 9.17Q7.41 9.04 7.48 8.89L7.48 8.89L7.48 8.89Q7.56 8.74 7.59 8.63L7.59 8.63L7.59 8.63Q7.63 8.53 7.63 8.41L7.63 8.41L7.63 8.41Q7.63 8.25 6.79 6.36L6.79 6.36L6.79 6.36Q5.95 4.48 5.71 4.21L5.71 4.21L5.71 4.21Q5.66 4.14 5.60 4.10L5.60 4.10L5.60 4.10Q5.54 4.06 5.50 4.02L5.50 4.02L5.50 4.02Q5.45 3.99 5.41 3.97L5.41 3.97L5.41 3.97Q5.38 3.95 5.32 3.94L5.32 3.94L5.32 3.94Q5.26 3.93 5.24 3.93L5.24 3.93L5.24 3.93Q5.22 3.93 5.16 3.93L5.16 3.93L5.16 3.93Q5.10 3.92 5.08 3.92L5.08 3.92L5.08 3.92Q4.69 3.88 4.61 3.84L4.61 3.84L4.61 3.84Q4.52 3.81 4.52 3.70L4.52 3.70L4.52 3.70Q4.52 3.50 4.93 3.50L4.93 3.50L4.93 3.50Q5.01 3.50 5.47 3.53L5.47 3.53L5.47 3.53Q5.94 3.56 6.47 3.56L6.47 3.56L6.47 3.56Q6.50 3.56 6.85 3.53L6.85 3.53L6.85 3.53Q7.20 3.50 7.39 3.50L7.39 3.50L7.39 3.50Q7.81 3.50 7.81 3.61L7.81 3.61L7.81 3.61Q7.81 3.70 7.66 3.78L7.66 3.78L7.66 3.78Q7.50 3.86 7.36 4.00L7.36 4.00L7.36 4.00Q7.21 4.13 7.21 4.33L7.21 4.33L7.21 4.33Q7.21 4.59 7.64 5.57L7.64 5.57L7.64 5.57Q7.67 5.63 7.83 6.03L7.83 6.03L7.83 6.03Q7.99 6.44 8.12 6.71L8.12 6.71L8.12 6.71Q8.25 6.99 8.30 6.99L8.30 6.99L8.30 6.99Q8.41 6.99 8.86 5.76L8.86 5.76L8.86 5.76Q9.31 4.54 9.31 4.31L9.31 4.31L9.31 4.31Q9.31 4.06 9.10 3.96L9.10 3.96L9.10 3.96Q8.89 3.85 8.68 3.80L8.68 3.80L8.68 3.80Q8.47 3.75 8.47 3.64L8.47 3.64L8.47 3.64Q8.47 3.49 8.78 3.49L8.78 3.49L8.78 3.49Q8.86 3.49 9.20 3.50L9.20 3.50L9.20 3.50Q9.53 3.51 9.67 3.51L9.67 3.51L9.91 3.51L9.91 3.51Q10.11 3.51 10.65 3.47L10.65 3.47L10.78 3.47L10.78 3.47Q10.96 3.47 10.96 3.61L10.96 3.61L10.96 3.61Q10.96 3.75 10.70 3.84L10.70 3.84L10.70 3.84Q10.43 3.92 10.33 4.02L10.33 4.02L10.33 4.02Q10.11 4.24 9.94 4.66L9.94 4.66L9.94 4.66Q9.65 5.38 9.24 6.33L9.24 6.33L9.24 6.33Q8.82 7.31 8.75 7.50L8.75 7.50L8.75 7.50Q8.68 7.70 8.68 7.85L8.68 7.85L8.68 7.85Q8.68 7.97 9.53 9.87L9.53 9.87L9.53 9.87Q10.39 11.77 10.54 11.77L10.54 11.77L10.54 11.77Q10.71 11.77 12.17 8.24L12.17 8.24L12.17 8.24Q13.64 4.70 13.64 4.35L13.64 4.35L13.64 4.35Q13.64 4.13 13.47 4.01L13.47 4.01L13.47 4.01Q13.31 3.89 13.12 3.87L13.12 3.87L13.12 3.87Q12.92 3.85 12.76 3.80L12.76 3.80L12.76 3.80Q12.60 3.75 12.60 3.64L12.60 3.64L12.60 3.64Q12.60 3.54 12.64 3.52L12.64 3.52L12.64 3.52Q12.68 3.50 12.87 3.50L12.87 3.50L12.87 3.50Q12.91 3.50 13.19 3.51L13.19 3.51L13.19 3.51Q13.47 3.51 13.75 3.51L13.75 3.51L13.75 3.51Q14 3.51 14.31 3.50L14.31 3.50L14.31 3.50Q14.63 3.49 14.99 3.49L14.99 3.49L14.99 3.49Q15.27 3.49 15.27 3.68L15.27 3.68L15.27 3.68Q15.27 3.78 15.20 3.84L15.20 3.84L15.20 3.84Q15.12 3.89 14.97 3.98L14.97 3.98L14.97 3.98Q14.81 4.06 14.70 4.17L14.70 4.17L14.70 4.17Q14.63 4.24 14.58 4.31L14.58 4.31L14.58 4.31Q14.53 4.38 14.48 4.49L14.48 4.49L14.48 4.49Q14.42 4.59 14.38 4.66L14.38 4.66L14.38 4.66Q14.35 4.73 14.27 4.91L14.27 4.91L14.27 4.91Q14.20 5.08 14.15 5.18L14.15 5.18L14.15 5.18Q13.08 7.59 11.75 10.58L11.75 10.58L11.75 10.58Q10.68 13.01 10.49 13.41L10.49 13.41L10.49 13.41Q10.29 13.82 10.18 13.82L10.18 13.82L10.18 13.82Q10.11 13.82 10.01 13.64L10.01 13.64L10.01 13.64Q9.91 13.47 9.74 13.05L9.74 13.05L9.74 13.05Q9.56 12.64 9.53 12.57L9.53 12.57L9.53 12.57Q9.39 12.26 9.16 11.72L9.16 11.72L9.16 11.72Q8.93 11.17 8.77 10.79L8.77 10.79L8.77 10.79Q8.61 10.42 8.44 10.02L8.44 10.02L8.44 10.02Q8.27 9.63 8.16 9.43L8.16 9.43L8.16 9.43Q8.05 9.23 8.01 9.23L8.01 9.23L8.01 9.23Q7.87 9.23 7.06 11.16L7.06 11.16L7.06 11.16Q6.26 13.09 6.20 13.31L6.20 13.31L6.20 13.31Q6.19 13.37 6.17 13.43L6.17 13.43L6.17 13.43Q6.15 13.48 6.13 13.52L6.13 13.52L6.13 13.52Q6.12 13.57 6.10 13.61L6.10 13.61L6.10 13.61Q6.09 13.65 6.08 13.68L6.08 13.68L6.08 13.68Q6.06 13.71 6.05 13.73L6.05 13.73L6.05 13.73Q6.05 13.76 6.03 13.78L6.03 13.78L6.03 13.78Q6.02 13.80 6.01 13.82L6.01 13.82L6.01 13.82Q5.99 13.83 5.98 13.84L5.98 13.84L5.98 13.84Q5.96 13.85 5.95 13.85L5.95 13.85L5.95 13.85Q5.94 13.86 5.91 13.86L5.91 13.86L5.91 13.86Q5.78 13.86 5.60 13.46L5.60 13.46L5.60 13.46Q5.42 13.06 4.94 11.89L4.94 11.89L4.94 11.89Q4.47 10.72 3.98 9.65L3.98 9.65L3.98 9.65Q3.16 7.87 2.25 5.63L2.25 5.63L2.25 5.63Q1.99 4.96 1.68 4.57L1.68 4.57L1.68 4.57Q1.37 4.19 1.13 4.09L1.13 4.09L1.13 4.09Q0.90 3.99 0.70 3.98L0.70 3.98L0.70 3.98Q0.50 3.96 0.39 3.92L0.39 3.92L0.39 3.92Q0.28 3.88 0.28 3.71ZM22.82 3.65L22.82 3.65L22.82 3.65Q22.82 3.50 23.21 3.50L23.21 3.50L23.21 3.50Q23.35 3.50 23.86 3.53L23.86 3.53L23.86 3.53Q24.36 3.56 24.79 3.56L24.79 3.56L24.79 3.56Q25.06 3.56 25.30 3.54L25.30 3.54L25.30 3.54Q25.55 3.53 26.03 3.53L26.03 3.53L26.03 3.53Q26.33 3.53 26.33 3.72L26.33 3.72L26.33 3.72Q26.33 3.96 25.84 3.96L25.84 3.96L25.84 3.96Q25.56 3.96 25.44 4.54L25.44 4.54L25.44 4.54Q25.31 5.11 25.31 5.71L25.31 5.71L25.31 6.23L25.31 6.23Q25.31 6.57 25.30 6.99L25.30 6.99L25.30 6.99Q25.28 7.42 25.28 7.52L25.28 7.52L25.28 7.52Q25.28 7.87 25.37 7.97L25.37 7.97L25.37 7.97Q25.45 8.06 25.76 8.06L25.76 8.06L25.76 8.06Q25.79 8.06 26.31 8.06L26.31 8.06L26.31 8.06Q26.82 8.05 28.06 8.05L28.06 8.05L28.06 8.05Q28.17 8.05 28.43 8.06L28.43 8.06L28.43 8.06Q28.70 8.06 29.31 8.07L29.31 8.07L29.31 8.07Q29.92 8.08 30.70 8.08L30.70 8.08L30.70 8.08Q30.80 8.08 30.83 7.84L30.83 7.84L30.83 7.84Q30.86 7.56 30.86 6.13L30.86 6.13L30.86 5.38L30.86 5.38Q30.86 4.83 30.74 4.51L30.74 4.51L30.74 4.51Q30.62 4.19 30.44 4.09L30.44 4.09L30.44 4.09Q30.27 3.99 30.09 3.96L30.09 3.96L30.09 3.96Q29.92 3.93 29.80 3.88L29.80 3.88L29.80 3.88Q29.68 3.84 29.68 3.70L29.68 3.70L29.68 3.70Q29.68 3.56 30.23 3.56L30.23 3.56L30.23 3.56Q30.37 3.56 30.83 3.57L30.83 3.57L30.83 3.57Q31.29 3.58 31.58 3.58L31.58 3.58L31.58 3.58Q31.72 3.58 32.06 3.57L32.06 3.57L32.06 3.57Q32.40 3.56 32.68 3.56L32.68 3.56L32.68 3.56Q33.00 3.56 33.00 3.74L33.00 3.74L33.00 3.74Q33.00 3.92 32.80 3.92L32.80 3.92L32.80 3.92Q32.41 3.92 32.21 4.16L32.21 4.16L32.21 4.16Q32.00 4.40 32.00 4.79L32.00 4.79L32.00 4.79Q32.00 5.25 31.98 6.42L31.98 6.42L31.98 6.42Q31.96 7.59 31.96 8.19L31.96 8.19L31.96 8.19Q31.96 8.51 31.95 9.20L31.95 9.20L31.95 9.20Q31.93 9.90 31.93 10.29L31.93 10.29L31.93 10.81L31.93 10.81Q31.93 11.23 31.96 11.58L31.96 11.58L31.96 11.58Q31.99 11.94 31.99 12.10L31.99 12.10L31.99 12.10Q31.99 13.01 33.17 13.13L33.17 13.13L33.17 13.13Q33.33 13.13 33.33 13.29L33.33 13.29L33.33 13.29Q33.33 13.38 33.19 13.41L33.19 13.41L33.19 13.41Q33.05 13.44 32.65 13.44L32.65 13.44L32.65 13.44Q32.49 13.44 32.14 13.40L32.14 13.40L32.14 13.40Q31.78 13.37 31.57 13.37L31.57 13.37L31.57 13.37Q31.32 13.37 30.96 13.40L30.96 13.40L30.96 13.40Q30.60 13.44 30.25 13.44L30.25 13.44L30.25 13.44Q30.09 13.44 30.02 13.44L30.02 13.44L30.02 13.44Q29.95 13.44 29.87 13.42L29.87 13.42L29.87 13.42Q29.79 13.40 29.77 13.36L29.77 13.36L29.77 13.36Q29.75 13.33 29.75 13.26L29.75 13.26L29.75 13.26Q29.75 13.17 29.89 13.10L29.89 13.10L29.89 13.10Q30.03 13.03 30.20 12.99L30.20 12.99L30.20 12.99Q30.37 12.95 30.53 12.83L30.53 12.83L30.53 12.83Q30.69 12.71 30.72 12.53L30.72 12.53L30.72 12.53Q30.81 12.03 30.81 11.51L30.81 11.51L30.81 11.51Q30.81 11.37 30.82 11.12L30.82 11.12L30.82 11.12Q30.83 10.86 30.83 10.75L30.83 10.75L30.83 10.75Q30.83 10.50 30.84 9.93L30.84 9.93L30.84 9.93Q30.86 9.35 30.86 9.03L30.86 9.03L30.86 9.03Q30.86 8.82 30.69 8.74L30.69 8.74L30.69 8.74Q30.52 8.65 29.97 8.65L29.97 8.65L29.97 8.65Q29.76 8.65 29.01 8.68L29.01 8.68L28.25 8.69L28.25 8.69Q27.64 8.69 26.87 8.67L26.87 8.67L26.87 8.67Q26.10 8.65 25.68 8.65L25.68 8.65L25.68 8.65Q25.47 8.65 25.40 8.74L25.40 8.74L25.40 8.74Q25.33 8.82 25.33 9.17L25.33 9.17L25.33 9.17Q25.33 9.52 25.30 10.08L25.30 10.08L25.30 10.08Q25.27 10.64 25.27 10.89L25.27 10.89L25.27 11.49L25.27 11.49Q25.27 12.10 25.38 12.39L25.38 12.39L25.38 12.39Q25.49 12.68 25.93 12.96L25.93 12.96L25.93 12.96Q26.04 13.03 26.53 13.03L26.53 13.03L26.53 13.03Q26.63 13.03 26.71 13.08L26.71 13.08L26.71 13.08Q26.80 13.13 26.80 13.19L26.80 13.19L26.80 13.19Q26.80 13.44 26.35 13.44L26.35 13.44L26.35 13.44Q25.93 13.44 25.66 13.41L25.66 13.41L25.66 13.41Q25.38 13.38 25.19 13.38L25.19 13.38L25.19 13.38Q24.79 13.38 24.35 13.42L24.35 13.42L24.35 13.42Q23.90 13.45 23.67 13.45L23.67 13.45L23.67 13.45Q23.02 13.45 23.02 13.24L23.02 13.24L23.02 13.24Q23.02 13.12 23.15 13.07L23.15 13.07L23.15 13.07Q23.28 13.02 23.45 13.00L23.45 13.00L23.45 13.00Q23.62 12.98 23.80 12.82L23.80 12.82L23.80 12.82Q23.98 12.66 24.05 12.35L24.05 12.35L24.05 12.35Q24.09 12.11 24.16 10.91L24.16 10.91L24.16 10.91Q24.23 9.70 24.23 8.61L24.23 8.61L24.23 7.81L24.23 7.81Q24.23 7.63 24.24 7.12L24.24 7.12L24.24 7.12Q24.25 6.61 24.25 6.30L24.25 6.30L24.25 6.30Q24.25 5.24 24.16 4.63L24.16 4.63L24.16 4.63Q24.12 4.28 23.79 4.09L23.79 4.09L23.79 4.09Q23.46 3.89 23.11 3.89L23.11 3.89L23.11 3.89Q22.97 3.89 22.90 3.80L22.90 3.80L22.90 3.80Q22.82 3.71 22.82 3.65ZM40.89 13.33L40.89 13.33L40.89 13.33Q40.89 13.13 41.10 13.06L41.10 13.06L41.10 13.06Q41.55 12.89 41.89 12.31L41.89 12.31L41.89 12.31Q42.22 11.73 43.55 8.83L43.55 8.83L43.55 8.83Q44.93 5.87 45.98 3.63L45.98 3.63L45.98 3.63Q46.07 3.42 46.15 3.36L46.15 3.36L46.15 3.36Q46.23 3.30 46.40 3.30L46.40 3.30L46.40 3.30Q46.52 3.30 46.56 3.36L46.56 3.36L46.56 3.36Q46.61 3.42 46.75 3.82L46.75 3.82L46.75 3.82Q46.83 4.06 46.89 4.23L46.89 4.23L46.89 4.23Q46.96 4.40 47.10 4.77L47.10 4.77L47.10 4.77Q47.24 5.15 47.40 5.56L47.40 5.56L47.40 5.56Q47.85 6.66 48.95 9.22L48.95 9.22L48.95 9.22Q50.05 11.77 50.15 11.98L50.15 11.98L50.15 11.98Q50.39 12.46 50.68 12.71L50.68 12.71L50.68 12.71Q50.97 12.95 51.19 12.97L51.19 12.97L51.19 12.97Q51.41 12.99 51.55 13.04L51.55 13.04L51.55 13.04Q51.70 13.09 51.70 13.26L51.70 13.26L51.70 13.26Q51.70 13.47 51.32 13.47L51.32 13.47L51.32 13.47Q51.17 13.47 50.72 13.43L50.72 13.43L50.72 13.43Q50.27 13.38 50.06 13.38L50.06 13.38L50.06 13.38Q49.80 13.38 49.38 13.41L49.38 13.41L49.38 13.41Q48.96 13.44 48.76 13.44L48.76 13.44L48.76 13.44Q48.33 13.44 48.21 13.40L48.21 13.40L48.21 13.40Q48.09 13.37 48.09 13.24L48.09 13.24L48.09 13.24Q48.09 13.15 48.20 13.08L48.20 13.08L48.20 13.08Q48.31 13.02 48.44 13.00L48.44 13.00L48.44 13.00Q48.57 12.98 48.68 12.87L48.68 12.87L48.68 12.87Q48.79 12.77 48.79 12.59L48.79 12.59L48.79 12.59Q48.79 12.28 48.44 11.33L48.44 11.33L48.44 11.33Q48.09 10.37 47.85 9.93L47.85 9.93L47.85 9.93Q47.73 9.69 47.28 9.69L47.28 9.69L47.28 9.69Q47.21 9.69 46.66 9.70L46.66 9.70L46.66 9.70Q46.12 9.72 45.58 9.72L45.58 9.72L44.84 9.72L44.84 9.72Q44.21 9.72 44.05 9.79L44.05 9.79L44.05 9.79Q43.89 9.86 43.76 10.12L43.76 10.12L43.76 10.12Q43.68 10.30 43.48 10.70L43.48 10.70L43.48 10.70Q43.29 11.10 43.22 11.26L43.22 11.26L43.22 11.26Q43.15 11.41 43.04 11.65L43.04 11.65L43.04 11.65Q42.94 11.90 42.90 12.05L42.90 12.05L42.90 12.05Q42.87 12.19 42.87 12.31L42.87 12.31L42.87 12.31Q42.87 12.63 43.03 12.80L43.03 12.80L43.03 12.80Q43.19 12.96 43.39 12.98L43.39 12.98L43.39 12.98Q43.58 13.01 43.74 13.06L43.74 13.06L43.74 13.06Q43.90 13.12 43.90 13.26L43.90 13.26L43.90 13.26Q43.90 13.36 43.86 13.40L43.86 13.40L43.86 13.40Q43.82 13.45 43.67 13.45L43.67 13.45L43.67 13.45Q43.58 13.45 43.18 13.45L43.18 13.45L43.18 13.45Q42.78 13.44 42.50 13.44L42.50 13.44L42.50 13.44Q42.20 13.44 41.81 13.47L41.81 13.47L41.81 13.47Q41.43 13.50 41.30 13.50L41.30 13.50L41.30 13.50Q40.89 13.50 40.89 13.33ZM44.41 8.71L44.41 8.71L44.41 8.71Q44.41 8.89 44.53 8.93L44.53 8.93L44.53 8.93Q44.66 8.97 45.12 8.97L45.12 8.97L45.56 8.97L46.89 8.96L46.89 8.96Q47.43 8.96 47.43 8.74L47.43 8.74L47.43 8.74Q47.43 8.55 46.75 7.01L46.75 7.01L46.75 7.01Q46.06 5.46 45.88 5.46L45.88 5.46L45.88 5.46Q45.75 5.46 45.08 7.01L45.08 7.01L45.08 7.01Q44.41 8.55 44.41 8.71ZM58.03 5.32L58.03 5.32L58.03 5.32Q58.03 4.76 58.17 3.88L58.17 3.88L58.17 3.88Q58.17 3.85 58.18 3.78L58.18 3.78L58.18 3.78Q58.18 3.71 58.19 3.69L58.19 3.69L58.19 3.69Q58.20 3.67 58.20 3.62L58.20 3.62L58.20 3.62Q58.21 3.57 58.23 3.55L58.23 3.55L58.23 3.55Q58.24 3.53 58.26 3.49L58.26 3.49L58.26 3.49Q58.28 3.46 58.31 3.44L58.31 3.44L58.31 3.44Q58.34 3.43 58.38 3.42L58.38 3.42L58.38 3.42Q58.42 3.40 58.48 3.39L58.48 3.39L58.48 3.39Q58.53 3.39 58.60 3.39L58.60 3.39L58.60 3.39Q58.83 3.39 59.79 3.44L59.79 3.44L59.79 3.44Q60.75 3.50 62.55 3.50L62.55 3.50L62.55 3.50Q65.63 3.50 66.86 3.43L66.86 3.43L66.86 3.43Q66.88 3.43 66.91 3.42L66.91 3.42L66.91 3.42Q66.95 3.42 66.96 3.42L66.96 3.42L66.96 3.42Q67.12 3.42 67.17 3.50L67.17 3.50L67.17 3.50Q67.23 3.58 67.23 3.65L67.23 3.65L67.23 3.65Q67.23 3.75 67.27 4.24L67.27 4.24L67.27 4.24Q67.31 4.73 67.31 4.79L67.31 4.79L67.31 4.79Q67.31 5.14 67.27 5.23L67.27 5.23L67.27 5.23Q67.23 5.32 67.09 5.32L67.09 5.32L67.09 5.32Q66.98 5.32 66.93 5.15L66.93 5.15L66.93 5.15Q66.82 4.75 66.74 4.60L66.74 4.60L66.74 4.60Q66.65 4.45 66.37 4.34L66.37 4.34L66.37 4.34Q66.09 4.23 65.52 4.23L65.52 4.23L63.70 4.23L63.70 4.23Q63.36 4.23 63.29 4.36L63.29 4.36L63.29 4.36Q63.21 4.49 63.21 5.12L63.21 5.12L63.21 5.81L63.21 5.81Q63.21 7.69 63.19 9.11L63.19 9.11L63.19 9.11Q63.17 10.54 63.17 10.93L63.17 10.93L63.17 10.93Q63.17 11.13 63.16 11.43L63.16 11.43L63.16 11.43Q63.15 11.73 63.15 11.84L63.15 11.84L63.15 11.84Q63.15 12.45 63.35 12.64L63.35 12.64L63.35 12.64Q63.53 12.81 63.76 12.90L63.76 12.90L63.76 12.90Q63.98 12.99 64.14 13.01L64.14 13.01L64.14 13.01Q64.30 13.02 64.41 13.08L64.41 13.08L64.41 13.08Q64.53 13.13 64.53 13.26L64.53 13.26L64.53 13.26Q64.53 13.41 64.46 13.45L64.46 13.45L64.46 13.45Q64.39 13.50 64.19 13.50L64.19 13.50L64.19 13.50Q64.02 13.50 63.45 13.44L63.45 13.44L63.45 13.44Q62.87 13.38 62.64 13.38L62.64 13.38L62.64 13.38Q62.47 13.38 61.96 13.43L61.96 13.43L61.96 13.43Q61.45 13.48 61.21 13.48L61.21 13.48L61.21 13.48Q60.69 13.48 60.69 13.26L60.69 13.26L60.69 13.26Q60.69 13.12 60.77 13.07L60.77 13.07L60.77 13.07Q60.86 13.02 61.10 12.98L61.10 12.98L61.10 12.98Q61.35 12.95 61.42 12.94L61.42 12.94L61.42 12.94Q61.89 12.82 61.95 12.38L61.95 12.38L61.95 12.38Q62.09 11.14 62.09 7.08L62.09 7.08L62.08 4.58L62.08 4.58Q62.08 4.31 61.92 4.25L61.92 4.25L61.92 4.25Q61.77 4.19 61.01 4.19L61.01 4.19L61.01 4.19Q60.03 4.19 59.53 4.24L59.53 4.24L59.53 4.24Q59.04 4.30 58.95 4.35L58.95 4.35L58.95 4.35Q58.87 4.40 58.76 4.54L58.76 4.54L58.76 4.54Q58.63 4.70 58.55 4.91L58.55 4.91L58.55 4.91Q58.48 5.11 58.46 5.24L58.46 5.24L58.46 5.24Q58.44 5.38 58.37 5.47L58.37 5.47L58.37 5.47Q58.31 5.56 58.18 5.56L58.18 5.56L58.18 5.56Q58.03 5.56 58.03 5.32ZM84.85 3.71L84.85 3.71L84.85 3.71Q84.85 3.51 85.23 3.51L85.23 3.51L85.23 3.51Q85.32 3.51 85.77 3.54L85.77 3.54L85.77 3.54Q86.23 3.56 86.77 3.56L86.77 3.56L86.77 3.56Q87.16 3.56 87.56 3.54L87.56 3.54L87.56 3.54Q87.95 3.51 87.98 3.51L87.98 3.51L87.98 3.51Q88.10 3.51 88.14 3.55L88.14 3.55L88.14 3.55Q88.17 3.58 88.17 3.68L88.17 3.68L88.17 3.68Q88.17 3.77 87.87 3.92L87.87 3.92L87.87 3.92Q87.57 4.07 87.57 4.34L87.57 4.34L87.57 4.34Q87.57 4.47 87.63 4.65L87.63 4.65L87.63 4.65Q87.68 4.83 87.85 5.22L87.85 5.22L87.85 5.22Q88.02 5.61 88.21 6.03L88.21 6.03L88.21 6.03Q88.40 6.45 88.79 7.33L88.79 7.33L88.79 7.33Q89.18 8.20 89.56 9.07L89.56 9.07L89.56 9.07Q89.66 9.30 89.84 9.74L89.84 9.74L89.84 9.74Q90.03 10.18 90.15 10.46L90.15 10.46L90.15 10.46Q90.27 10.74 90.41 11.05L90.41 11.05L90.41 11.05Q90.55 11.37 90.64 11.52L90.64 11.52L90.64 11.52Q90.73 11.68 90.78 11.68L90.78 11.68L90.78 11.68Q90.83 11.68 91.22 10.81L91.22 10.81L91.22 10.81Q91.62 9.94 91.92 9.17L91.92 9.17L91.92 9.17Q91.98 9.04 92.06 8.89L92.06 8.89L92.06 8.89Q92.13 8.74 92.17 8.63L92.17 8.63L92.17 8.63Q92.20 8.53 92.20 8.41L92.20 8.41L92.20 8.41Q92.20 8.25 91.36 6.36L91.36 6.36L91.36 6.36Q90.52 4.48 90.29 4.21L90.29 4.21L90.29 4.21Q90.23 4.14 90.17 4.10L90.17 4.10L90.17 4.10Q90.12 4.06 90.07 4.02L90.07 4.02L90.07 4.02Q90.02 3.99 89.98 3.97L89.98 3.97L89.98 3.97Q89.95 3.95 89.89 3.94L89.89 3.94L89.89 3.94Q89.84 3.93 89.82 3.93L89.82 3.93L89.82 3.93Q89.80 3.93 89.73 3.93L89.73 3.93L89.73 3.93Q89.67 3.92 89.66 3.92L89.66 3.92L89.66 3.92Q89.26 3.88 89.18 3.84L89.18 3.84L89.18 3.84Q89.10 3.81 89.10 3.70L89.10 3.70L89.10 3.70Q89.10 3.50 89.50 3.50L89.50 3.50L89.50 3.50Q89.59 3.50 90.05 3.53L90.05 3.53L90.05 3.53Q90.51 3.56 91.04 3.56L91.04 3.56L91.04 3.56Q91.07 3.56 91.42 3.53L91.42 3.53L91.42 3.53Q91.77 3.50 91.97 3.50L91.97 3.50L91.97 3.50Q92.39 3.50 92.39 3.61L92.39 3.61L92.39 3.61Q92.39 3.70 92.23 3.78L92.23 3.78L92.23 3.78Q92.08 3.86 91.93 4.00L91.93 4.00L91.93 4.00Q91.78 4.13 91.78 4.33L91.78 4.33L91.78 4.33Q91.78 4.59 92.22 5.57L92.22 5.57L92.22 5.57Q92.25 5.63 92.41 6.03L92.41 6.03L92.41 6.03Q92.57 6.44 92.69 6.71L92.69 6.71L92.69 6.71Q92.82 6.99 92.88 6.99L92.88 6.99L92.88 6.99Q92.99 6.99 93.44 5.76L93.44 5.76L93.44 5.76Q93.88 4.54 93.88 4.31L93.88 4.31L93.88 4.31Q93.88 4.06 93.67 3.96L93.67 3.96L93.67 3.96Q93.46 3.85 93.25 3.80L93.25 3.80L93.25 3.80Q93.04 3.75 93.04 3.64L93.04 3.64L93.04 3.64Q93.04 3.49 93.35 3.49L93.35 3.49L93.35 3.49Q93.44 3.49 93.77 3.50L93.77 3.50L93.77 3.50Q94.11 3.51 94.25 3.51L94.25 3.51L94.49 3.51L94.49 3.51Q94.68 3.51 95.23 3.47L95.23 3.47L95.35 3.47L95.35 3.47Q95.54 3.47 95.54 3.61L95.54 3.61L95.54 3.61Q95.54 3.75 95.27 3.84L95.27 3.84L95.27 3.84Q95.00 3.92 94.91 4.02L94.91 4.02L94.91 4.02Q94.68 4.24 94.51 4.66L94.51 4.66L94.51 4.66Q94.22 5.38 93.81 6.33L93.81 6.33L93.81 6.33Q93.39 7.31 93.32 7.50L93.32 7.50L93.32 7.50Q93.25 7.70 93.25 7.85L93.25 7.85L93.25 7.85Q93.25 7.97 94.11 9.87L94.11 9.87L94.11 9.87Q94.96 11.77 95.12 11.77L95.12 11.77L95.12 11.77Q95.28 11.77 96.75 8.24L96.75 8.24L96.75 8.24Q98.21 4.70 98.21 4.35L98.21 4.35L98.21 4.35Q98.21 4.13 98.05 4.01L98.05 4.01L98.05 4.01Q97.89 3.89 97.69 3.87L97.69 3.87L97.69 3.87Q97.50 3.85 97.33 3.80L97.33 3.80L97.33 3.80Q97.17 3.75 97.17 3.64L97.17 3.64L97.17 3.64Q97.17 3.54 97.22 3.52L97.22 3.52L97.22 3.52Q97.26 3.50 97.44 3.50L97.44 3.50L97.44 3.50Q97.48 3.50 97.76 3.51L97.76 3.51L97.76 3.51Q98.04 3.51 98.32 3.51L98.32 3.51L98.32 3.51Q98.57 3.51 98.89 3.50L98.89 3.50L98.89 3.50Q99.20 3.49 99.57 3.49L99.57 3.49L99.57 3.49Q99.85 3.49 99.85 3.68L99.85 3.68L99.85 3.68Q99.85 3.78 99.77 3.84L99.77 3.84L99.77 3.84Q99.69 3.89 99.54 3.98L99.54 3.98L99.54 3.98Q99.39 4.06 99.27 4.17L99.27 4.17L99.27 4.17Q99.20 4.24 99.16 4.31L99.16 4.31L99.16 4.31Q99.11 4.38 99.05 4.49L99.05 4.49L99.05 4.49Q98.99 4.59 98.96 4.66L98.96 4.66L98.96 4.66Q98.92 4.73 98.85 4.91L98.85 4.91L98.85 4.91Q98.77 5.08 98.73 5.18L98.73 5.18L98.73 5.18Q97.65 7.59 96.32 10.58L96.32 10.58L96.32 10.58Q95.26 13.01 95.06 13.41L95.06 13.41L95.06 13.41Q94.86 13.82 94.75 13.82L94.75 13.82L94.75 13.82Q94.68 13.82 94.58 13.64L94.58 13.64L94.58 13.64Q94.49 13.47 94.31 13.05L94.31 13.05L94.31 13.05Q94.14 12.64 94.11 12.57L94.11 12.57L94.11 12.57Q93.97 12.26 93.74 11.72L93.74 11.72L93.74 11.72Q93.51 11.17 93.34 10.79L93.34 10.79L93.34 10.79Q93.18 10.42 93.02 10.02L93.02 10.02L93.02 10.02Q92.85 9.63 92.74 9.43L92.74 9.43L92.74 9.43Q92.62 9.23 92.58 9.23L92.58 9.23L92.58 9.23Q92.44 9.23 91.64 11.16L91.64 11.16L91.64 11.16Q90.83 13.09 90.78 13.31L90.78 13.31L90.78 13.31Q90.76 13.37 90.74 13.43L90.74 13.43L90.74 13.43Q90.72 13.48 90.71 13.52L90.71 13.52L90.71 13.52Q90.69 13.57 90.68 13.61L90.68 13.61L90.68 13.61Q90.66 13.65 90.65 13.68L90.65 13.68L90.65 13.68Q90.64 13.71 90.63 13.73L90.63 13.73L90.63 13.73Q90.62 13.76 90.61 13.78L90.61 13.78L90.61 13.78Q90.59 13.80 90.58 13.82L90.58 13.82L90.58 13.82Q90.57 13.83 90.55 13.84L90.55 13.84L90.55 13.84Q90.54 13.85 90.52 13.85L90.52 13.85L90.52 13.85Q90.51 13.86 90.48 13.86L90.48 13.86L90.48 13.86Q90.36 13.86 90.17 13.46L90.17 13.46L90.17 13.46Q89.99 13.06 89.52 11.89L89.52 11.89L89.52 11.89Q89.04 10.72 88.55 9.65L88.55 9.65L88.55 9.65Q87.74 7.87 86.83 5.63L86.83 5.63L86.83 5.63Q86.56 4.96 86.25 4.57L86.25 4.57L86.25 4.57Q85.95 4.19 85.71 4.09L85.71 4.09L85.71 4.09Q85.47 3.99 85.27 3.98L85.27 3.98L85.27 3.98Q85.08 3.96 84.97 3.92L84.97 3.92L84.97 3.92Q84.85 3.88 84.85 3.71ZM107.39 3.65L107.39 3.65L107.39 3.65Q107.39 3.46 107.79 3.46L107.79 3.46L107.79 3.46Q107.84 3.46 107.97 3.47L107.97 3.47L107.97 3.47Q108.09 3.49 108.16 3.49L108.16 3.49L108.16 3.49Q108.21 3.49 109.48 3.52L109.48 3.52L109.48 3.52Q110.75 3.56 111.58 3.56L111.58 3.56L111.58 3.56Q111.87 3.56 113.03 3.53L113.03 3.53L113.03 3.53Q114.18 3.50 114.38 3.50L114.38 3.50L114.38 3.50Q114.65 3.50 114.65 3.82L114.65 3.82L114.65 3.82Q114.65 3.91 114.56 4.38L114.56 4.38L114.56 4.38Q114.48 4.84 114.48 5.25L114.48 5.25L114.48 5.25Q114.48 5.38 114.41 5.47L114.41 5.47L114.41 5.47Q114.34 5.56 114.25 5.56L114.25 5.56L114.25 5.56Q114.04 5.56 114.04 5.26L114.04 5.26L114.04 5.26Q114.04 4.89 113.81 4.58L113.81 4.58L113.81 4.58Q113.57 4.27 113.22 4.26L113.22 4.26L113.22 4.26Q111.96 4.16 111.29 4.16L111.29 4.16L110.92 4.16L110.92 4.16Q110.19 4.16 110.08 4.26L110.08 4.26L110.08 4.26Q109.96 4.37 109.93 5.01L109.93 5.01L109.93 5.01Q109.87 6.02 109.87 7.35L109.87 7.35L109.87 7.35Q109.87 8.05 110.14 8.06L110.14 8.06L110.49 8.06L111.08 8.06L111.51 8.06L111.51 8.06Q112.35 8.06 112.63 8.01L112.63 8.01L112.63 8.01Q112.91 7.95 113.13 7.80L113.13 7.80L113.13 7.80Q113.40 7.62 113.46 7.28L113.46 7.28L113.46 7.28Q113.50 7.04 113.65 7.04L113.65 7.04L113.65 7.04Q113.78 7.04 113.81 7.08L113.81 7.08L113.81 7.08Q113.83 7.13 113.83 7.27L113.83 7.27L113.83 7.27Q113.83 7.36 113.78 7.91L113.78 7.91L113.78 7.91Q113.72 8.46 113.72 8.74L113.72 8.74L113.72 8.74Q113.72 9.00 113.74 9.24L113.74 9.24L113.74 9.24Q113.76 9.48 113.76 9.59L113.76 9.59L113.76 9.59Q113.76 9.94 113.67 9.94L113.67 9.94L113.67 9.94Q113.46 9.94 113.36 9.60L113.36 9.60L113.36 9.60Q113.16 9.02 113.01 8.92L113.01 8.92L113.01 8.92Q112.71 8.72 111.66 8.72L111.66 8.72L111.66 8.72Q111.24 8.72 110.98 8.72L110.98 8.72L110.98 8.72Q110.73 8.72 110.65 8.71L110.65 8.71L110.65 8.71Q110.57 8.71 110.52 8.71L110.52 8.71L110.52 8.71Q110.47 8.71 110.43 8.71L110.43 8.71L110.43 8.71Q109.86 8.71 109.86 8.97L109.86 8.97L109.86 8.97Q109.86 9.38 109.84 9.99L109.84 9.99L109.84 9.99Q109.83 10.60 109.83 10.99L109.83 10.99L109.83 11.55L109.83 11.55Q109.83 12.56 110.17 12.66L110.17 12.66L110.17 12.66Q110.52 12.77 110.77 12.77L110.77 12.77L110.77 12.77Q111.82 12.77 112.61 12.67L112.61 12.67L112.61 12.67Q113.40 12.57 113.80 12.42L113.80 12.42L113.80 12.42Q114.20 12.28 114.46 12.10L114.46 12.10L114.46 12.10Q114.73 11.93 114.81 11.78L114.81 11.78L114.81 11.78Q114.88 11.63 114.96 11.54L114.96 11.54L114.96 11.54Q115.04 11.44 115.12 11.44L115.12 11.44L115.12 11.44Q115.29 11.44 115.29 11.68L115.29 11.68L115.29 11.68Q115.29 12.28 114.69 12.89L114.69 12.89L114.69 12.89Q114.09 13.51 113.64 13.51L113.64 13.51L113.64 13.51Q112.63 13.51 111.36 13.44L111.36 13.44L111.36 13.44Q110.10 13.37 109.79 13.37L109.79 13.37L109.79 13.37Q109.40 13.37 108.81 13.43L108.81 13.43L108.81 13.43Q108.22 13.50 107.88 13.50L107.88 13.50L107.88 13.50Q107.59 13.50 107.59 13.36L107.59 13.36L107.59 13.36Q107.59 13.23 107.59 13.19L107.59 13.19L107.59 13.19Q107.59 13.15 107.63 13.12L107.63 13.12L107.63 13.12Q107.67 13.09 107.72 13.08L107.72 13.08L107.72 13.08Q107.77 13.08 107.91 13.03L107.91 13.03L107.91 13.03Q108.04 12.99 108.19 12.92L108.19 12.92L108.19 12.92Q108.53 12.75 108.63 12.26L108.63 12.26L108.63 12.26Q108.74 11.77 108.74 10.21L108.74 10.21L108.74 8.47L108.74 8.47Q108.74 8.09 108.76 7.29L108.76 7.29L108.76 7.29Q108.78 6.50 108.78 6.05L108.78 6.05L108.78 6.05Q108.78 5.67 108.75 4.77L108.75 4.77L108.75 4.77Q108.74 4.37 108.40 4.14L108.40 4.14L108.40 4.14Q108.07 3.92 107.62 3.91L107.62 3.91L107.62 3.91Q107.39 3.91 107.39 3.65ZM133.17 8.90L133.17 8.90L133.17 8.90Q133.17 7.38 133.76 6.16L133.76 6.16L133.76 6.16Q134.34 4.94 135.57 4.19L135.57 4.19L135.57 4.19Q136.79 3.44 138.47 3.44L138.47 3.44L138.47 3.44Q139.33 3.44 140.20 3.70L140.20 3.70L140.20 3.70Q141.06 3.95 141.58 4.20L141.58 4.20L142.10 4.47L142.10 4.47Q142.14 4.47 142.24 4.40L142.24 4.40L142.24 4.40Q142.34 4.33 142.39 4.33L142.39 4.33L142.39 4.33Q142.46 4.33 142.53 4.38L142.53 4.38L142.53 4.38Q142.60 4.44 142.60 4.55L142.60 4.55L142.60 4.55Q142.62 4.96 142.67 5.41L142.67 5.41L142.67 5.41Q142.72 5.87 142.76 6.16L142.76 6.16L142.76 6.16Q142.80 6.45 142.80 6.51L142.80 6.51L142.80 6.51Q142.80 6.76 142.63 6.76L142.63 6.76L142.63 6.76Q142.51 6.76 142.39 6.57L142.39 6.57L142.39 6.57Q141.04 4.02 138.47 4.02L138.47 4.02L138.47 4.02Q136.72 4.02 135.60 5.14L135.60 5.14L135.60 5.14Q134.48 6.26 134.48 8.06L134.48 8.06L134.48 8.06Q134.48 9.06 134.74 9.93L134.74 9.93L134.74 9.93Q135.00 10.79 135.53 11.51L135.53 11.51L135.53 11.51Q136.05 12.24 136.98 12.66L136.98 12.66L136.98 12.66Q137.90 13.08 139.13 13.08L139.13 13.08L139.13 13.08Q141.15 13.08 142.52 10.98L142.52 10.98L142.52 10.98Q142.58 10.88 142.73 10.88L142.73 10.88L142.73 10.88Q142.86 10.88 142.86 11.07L142.86 11.07L142.86 11.07Q142.86 11.23 142.81 11.49L142.81 11.49L142.81 11.49Q142.76 11.75 142.69 12.06L142.69 12.06L142.69 12.06Q142.62 12.38 142.60 12.45L142.60 12.45L142.60 12.45Q142.58 12.60 142.38 12.70L142.38 12.70L142.38 12.70Q141.62 13.06 141.20 13.24L141.20 13.24L141.20 13.24Q140.77 13.43 140.11 13.57L140.11 13.57L140.11 13.57Q139.45 13.72 138.77 13.72L138.77 13.72L138.77 13.72Q137.55 13.72 136.57 13.43L136.57 13.43L136.57 13.43Q135.59 13.13 134.97 12.66L134.97 12.66L134.97 12.66Q134.34 12.18 133.92 11.54L133.92 11.54L133.92 11.54Q133.50 10.91 133.34 10.25L133.34 10.25L133.34 10.25Q133.17 9.60 133.17 8.90ZM151.47 8.69L151.47 8.69L151.47 8.69Q151.47 6.34 152.88 4.84L152.88 4.84L152.88 4.84Q154.29 3.33 156.88 3.33L156.88 3.33L156.88 3.33Q158.09 3.33 159.05 3.68L159.05 3.68L159.05 3.68Q160.02 4.03 160.58 4.54L160.58 4.54L160.58 4.54Q161.14 5.05 161.52 5.71L161.52 5.71L161.52 5.71Q161.90 6.37 162.04 6.92L162.04 6.92L162.04 6.92Q162.18 7.48 162.18 7.95L162.18 7.95L162.18 7.95Q162.18 9.86 161.43 11.16L161.43 11.16L161.43 11.16Q160.69 12.47 159.48 13.07L159.48 13.07L159.48 13.07Q158.27 13.66 156.69 13.66L156.69 13.66L156.69 13.66Q155.02 13.66 153.81 12.94L153.81 12.94L153.81 12.94Q152.60 12.21 152.03 11.10L152.03 11.10L152.03 11.10Q151.47 10.00 151.47 8.69ZM152.70 7.98L152.70 7.98L152.70 7.98Q152.70 8.54 152.85 9.19L152.85 9.19L152.85 9.19Q153.01 9.84 153.36 10.54L153.36 10.54L153.36 10.54Q153.71 11.23 154.20 11.78L154.20 11.78L154.20 11.78Q154.70 12.33 155.46 12.69L155.46 12.69L155.46 12.69Q156.23 13.05 157.14 13.05L157.14 13.05L157.14 13.05Q157.61 13.05 158.14 12.90L158.14 12.90L158.14 12.90Q158.66 12.75 159.18 12.45L159.18 12.45L159.18 12.45Q159.70 12.14 160.10 11.70L160.10 11.70L160.10 11.70Q160.51 11.26 160.77 10.62L160.77 10.62L160.77 10.62Q161.03 9.98 161.03 9.24L161.03 9.24L161.03 9.24Q161.03 6.71 159.70 5.30L159.70 5.30L159.70 5.30Q158.37 3.89 156.41 3.89L156.41 3.89L156.41 3.89Q154.87 3.89 153.78 4.93L153.78 4.93L153.78 4.93Q152.70 5.96 152.70 7.98ZM170.41 8.69L170.41 8.69L170.41 8.69Q170.41 6.34 171.82 4.84L171.82 4.84L171.82 4.84Q173.24 3.33 175.83 3.33L175.83 3.33L175.83 3.33Q177.03 3.33 178.00 3.68L178.00 3.68L178.00 3.68Q178.96 4.03 179.52 4.54L179.52 4.54L179.52 4.54Q180.08 5.05 180.46 5.71L180.46 5.71L180.46 5.71Q180.84 6.37 180.98 6.92L180.98 6.92L180.98 6.92Q181.12 7.48 181.12 7.95L181.12 7.95L181.12 7.95Q181.12 9.86 180.38 11.16L180.38 11.16L180.38 11.16Q179.63 12.47 178.42 13.07L178.42 13.07L178.42 13.07Q177.21 13.66 175.63 13.66L175.63 13.66L175.63 13.66Q173.96 13.66 172.75 12.94L172.75 12.94L172.75 12.94Q171.54 12.21 170.98 11.10L170.98 11.10L170.98 11.10Q170.41 10.00 170.41 8.69ZM171.64 7.98L171.64 7.98L171.64 7.98Q171.64 8.54 171.79 9.19L171.79 9.19L171.79 9.19Q171.95 9.84 172.30 10.54L172.30 10.54L172.30 10.54Q172.65 11.23 173.15 11.78L173.15 11.78L173.15 11.78Q173.64 12.33 174.41 12.69L174.41 12.69L174.41 12.69Q175.17 13.05 176.08 13.05L176.08 13.05L176.08 13.05Q176.55 13.05 177.08 12.90L177.08 12.90L177.08 12.90Q177.60 12.75 178.12 12.45L178.12 12.45L178.12 12.45Q178.64 12.14 179.05 11.70L179.05 11.70L179.05 11.70Q179.45 11.26 179.71 10.62L179.71 10.62L179.71 10.62Q179.97 9.98 179.97 9.24L179.97 9.24L179.97 9.24Q179.97 6.71 178.64 5.30L178.64 5.30L178.64 5.30Q177.31 3.89 175.35 3.89L175.35 3.89L175.35 3.89Q173.81 3.89 172.73 4.93L172.73 4.93L172.73 4.93Q171.64 5.96 171.64 7.98ZM189.01 3.71L189.01 3.71L189.01 3.71Q189.01 3.53 189.41 3.53L189.41 3.53L189.41 3.53Q189.55 3.53 190.05 3.54L190.05 3.54L190.05 3.54Q190.55 3.56 190.99 3.56L190.99 3.56L190.99 3.56Q191.24 3.56 191.45 3.54L191.45 3.54L191.45 3.54Q191.66 3.53 192.19 3.53L192.19 3.53L192.19 3.53Q192.43 3.53 192.43 3.71L192.43 3.71L192.43 3.71Q192.43 3.77 192.36 3.81L192.36 3.81L192.36 3.81Q192.29 3.85 192.16 3.91L192.16 3.91L192.16 3.91Q192.02 3.96 191.94 4.00L191.94 4.00L191.94 4.00Q191.51 4.26 191.51 5.71L191.51 5.71L191.51 5.71Q191.51 6.47 191.49 7.17L191.49 7.17L191.49 7.17Q191.46 7.87 191.46 7.90L191.46 7.90L191.46 7.90Q191.46 8.19 191.59 8.19L191.59 8.19L191.59 8.19Q191.69 8.19 192.71 7.36L192.71 7.36L192.71 7.36Q193.73 6.52 194.74 5.55L194.74 5.55L194.74 5.55Q195.75 4.58 195.75 4.27L195.75 4.27L195.75 4.27Q195.75 4.19 195.71 4.12L195.71 4.12L195.71 4.12Q195.66 4.06 195.57 4.02L195.57 4.02L195.57 4.02Q195.47 3.98 195.40 3.96L195.40 3.96L195.40 3.96Q195.33 3.93 195.20 3.91L195.20 3.91L195.20 3.91Q195.08 3.89 195.05 3.88L195.05 3.88L195.05 3.88Q194.89 3.85 194.89 3.68L194.89 3.68L194.89 3.68Q194.89 3.53 195.12 3.53L195.12 3.53L195.12 3.53Q195.15 3.53 195.27 3.54L195.27 3.54L195.27 3.54Q195.38 3.54 195.47 3.54L195.47 3.54L195.47 3.54Q195.50 3.54 195.80 3.56L195.80 3.56L195.80 3.56Q196.10 3.57 196.31 3.57L196.31 3.57L198.04 3.53L198.04 3.53Q198.32 3.53 198.32 3.71L198.32 3.71L198.32 3.71Q198.32 3.81 198.24 3.86L198.24 3.86L198.24 3.86Q198.16 3.91 197.92 3.98L197.92 3.98L197.92 3.98Q197.68 4.05 197.51 4.12L197.51 4.12L197.51 4.12Q197.44 4.14 196.83 4.54L196.83 4.54L196.83 4.54Q196.70 4.62 195.24 5.84L195.24 5.84L195.24 5.84Q194.19 6.73 192.81 7.90L192.81 7.90L192.65 8.09L192.65 8.09Q192.65 8.16 192.81 8.32L192.81 8.32L192.81 8.32Q193.47 8.97 194.52 10.01L194.52 10.01L194.52 10.01Q196.46 11.94 197.04 12.42L197.04 12.42L197.04 12.42Q197.61 12.91 198.13 12.99L198.13 12.99L198.13 12.99Q198.53 13.05 198.59 13.16L198.59 13.16L198.59 13.16Q198.60 13.19 198.60 13.24L198.60 13.24L198.60 13.24Q198.60 13.37 198.49 13.40L198.49 13.40L198.49 13.40Q198.37 13.43 197.79 13.43L197.79 13.43L196.43 13.43L196.43 13.43Q196.34 13.43 196.29 13.41L196.29 13.41L196.29 13.41Q196.24 13.40 196.19 13.37L196.19 13.37L196.19 13.37Q196.14 13.34 196.06 13.25L196.06 13.25L196.06 13.25Q195.99 13.16 195.88 13.04L195.88 13.04L195.88 13.04Q195.78 12.92 195.56 12.68L195.56 12.68L195.56 12.68Q195.34 12.43 195.08 12.17L195.08 12.17L195.08 12.17Q192.11 9.16 191.95 9.03L191.95 9.03L191.95 9.03Q191.80 8.90 191.69 8.90L191.69 8.90L191.69 8.90Q191.49 8.90 191.49 9.28L191.49 9.28L191.49 9.32L191.49 9.32Q191.49 9.37 191.50 9.45L191.50 9.45L191.50 9.45Q191.51 9.53 191.51 9.65L191.51 9.65L191.51 9.65Q191.51 9.76 191.51 9.95L191.51 9.95L191.51 9.95Q191.51 10.14 191.51 10.36L191.51 10.36L191.51 10.36Q191.51 12.19 191.72 12.57L191.72 12.57L191.72 12.57Q191.98 13.02 192.65 13.02L192.65 13.02L192.65 13.02Q192.68 13.02 192.71 13.03L192.71 13.03L192.71 13.03Q192.74 13.03 192.77 13.03L192.77 13.03L192.77 13.03Q192.86 13.03 192.96 13.08L192.96 13.08L192.96 13.08Q193.06 13.13 193.06 13.19L193.06 13.19L193.06 13.19Q193.06 13.34 192.98 13.39L192.98 13.39L192.98 13.39Q192.91 13.44 192.71 13.44L192.71 13.44L192.71 13.44Q192.29 13.44 191.93 13.41L191.93 13.41L191.93 13.41Q191.58 13.38 191.38 13.38L191.38 13.38L191.38 13.38Q190.99 13.38 190.53 13.42L190.53 13.42L190.53 13.42Q190.06 13.45 189.84 13.45L189.84 13.45L189.84 13.45Q189.34 13.45 189.34 13.30L189.34 13.30L189.34 13.24L189.34 13.24Q189.34 13.15 189.47 13.11L189.47 13.11L189.47 13.11Q189.60 13.08 189.80 13.02L189.80 13.02L189.80 13.02Q189.99 12.96 190.11 12.85L190.11 12.85L190.11 12.85Q190.30 12.66 190.35 11.95L190.35 11.95L190.35 11.95Q190.40 11.24 190.40 9.69L190.40 9.69L190.40 7.81L190.40 7.81Q190.40 7.63 190.39 7.12L190.39 7.12L190.39 7.12Q190.37 6.61 190.37 6.30L190.37 6.30L190.37 5.66L190.37 5.66Q190.37 4.94 190.33 4.63L190.33 4.63L190.33 4.63Q190.29 4.30 189.97 4.12L189.97 4.12L189.97 4.12Q189.66 3.93 189.31 3.92L189.31 3.92L189.31 3.92Q189.01 3.91 189.01 3.71ZM206.15 3.71L206.15 3.71L206.15 3.71Q206.15 3.50 206.54 3.50L206.54 3.50L206.54 3.50Q206.68 3.50 207.19 3.53L207.19 3.53L207.19 3.53Q207.69 3.56 208.12 3.56L208.12 3.56L208.12 3.56Q208.39 3.56 208.64 3.54L208.64 3.54L208.64 3.54Q208.88 3.53 209.36 3.53L209.36 3.53L209.36 3.53Q209.73 3.53 209.73 3.72L209.73 3.72L209.73 3.72Q209.73 3.84 209.09 4.10L209.09 4.10L209.09 4.10Q208.64 4.28 208.64 5.71L208.64 5.71L208.64 5.71Q208.64 7.60 208.62 9.05L208.62 9.05L208.62 9.05Q208.60 10.50 208.60 10.89L208.60 10.89L208.60 10.89Q208.60 12.07 208.95 12.59L208.95 12.59L208.95 12.59Q209.26 13.02 209.62 13.02L209.62 13.02L209.62 13.02Q209.65 13.02 209.76 13.03L209.76 13.03L209.76 13.03Q209.87 13.03 209.90 13.03L209.90 13.03L209.90 13.03Q210.00 13.03 210.10 13.08L210.10 13.08L210.10 13.08Q210.20 13.13 210.20 13.19L210.20 13.19L210.20 13.19Q210.20 13.34 210.12 13.39L210.12 13.39L210.12 13.39Q210.04 13.44 209.85 13.44L209.85 13.44L209.85 13.44Q209.43 13.44 209.07 13.41L209.07 13.41L209.07 13.41Q208.71 13.38 208.52 13.38L208.52 13.38L208.52 13.38Q208.12 13.38 207.66 13.42L207.66 13.42L207.66 13.42Q207.20 13.45 206.98 13.45L206.98 13.45L206.98 13.45Q206.35 13.45 206.35 13.24L206.35 13.24L206.35 13.24Q206.35 13.12 206.48 13.07L206.48 13.07L206.48 13.07Q206.61 13.02 206.78 13.00L206.78 13.00L206.78 13.00Q206.95 12.98 207.13 12.82L207.13 12.82L207.13 12.82Q207.31 12.66 207.38 12.35L207.38 12.35L207.38 12.35Q207.41 12.25 207.47 10.76L207.47 10.76L207.47 10.76Q207.54 9.27 207.54 8.61L207.54 8.61L207.54 7.81L207.54 7.81Q207.54 7.63 207.54 7.12L207.54 7.12L207.54 7.12Q207.55 6.61 207.55 6.30L207.55 6.30L207.55 5.66L207.55 5.66Q207.55 5.04 207.49 4.63L207.49 4.63L207.49 4.63Q207.45 4.30 207.12 4.12L207.12 4.12L207.12 4.12Q206.79 3.93 206.44 3.92L206.44 3.92L206.44 3.92Q206.15 3.91 206.15 3.71ZM217.74 3.77L217.74 3.77L217.74 3.77Q217.74 3.68 217.84 3.60L217.84 3.60L217.84 3.60Q217.94 3.53 218.09 3.53L218.09 3.53L218.09 3.53Q218.18 3.53 218.37 3.54L218.37 3.54L218.37 3.54Q218.57 3.54 218.62 3.54L218.62 3.54L218.62 3.54Q218.83 3.54 219.02 3.53L219.02 3.53L219.02 3.53Q219.20 3.51 219.31 3.51L219.31 3.51L219.31 3.51Q219.44 3.51 219.60 3.59L219.60 3.59L219.60 3.59Q219.77 3.67 219.80 3.75L219.80 3.75L219.80 3.75Q219.83 3.79 219.95 3.94L219.95 3.94L219.95 3.94Q220.08 4.09 220.29 4.33L220.29 4.33L220.29 4.33Q220.50 4.56 220.67 4.79L220.67 4.79L220.67 4.79Q222.57 7.27 225.76 10.77L225.76 10.77L225.76 10.77Q225.85 10.86 225.97 10.99L225.97 10.99L225.97 10.99Q226.09 11.12 226.14 11.18L226.14 11.18L226.14 11.18Q226.18 11.24 226.24 11.30L226.24 11.30L226.24 11.30Q226.30 11.35 226.33 11.38L226.33 11.38L226.33 11.38Q226.37 11.40 226.39 11.40L226.39 11.40L226.39 11.40Q226.53 11.40 226.53 10.53L226.53 10.53L226.53 8.89L226.53 8.89Q226.53 7.95 226.53 7.31L226.53 7.31L226.53 7.31Q226.52 6.66 226.51 6.38L226.51 6.38L226.51 6.38Q226.51 6.09 226.51 6.02L226.51 6.02L226.51 5.92L226.51 5.92Q226.51 5.45 226.44 5.11L226.44 5.11L226.44 5.11Q226.38 4.77 226.30 4.59L226.30 4.59L226.30 4.59Q226.21 4.41 226.05 4.28L226.05 4.28L226.05 4.28Q225.89 4.16 225.78 4.12L225.78 4.12L225.78 4.12Q225.67 4.09 225.46 4.05L225.46 4.05L225.46 4.05Q225.25 4.00 225.16 3.98L225.16 3.98L225.16 3.98Q224.88 3.89 224.88 3.74L224.88 3.74L224.88 3.74Q224.88 3.53 225.15 3.53L225.15 3.53L225.15 3.53Q225.23 3.53 225.82 3.54L225.82 3.54L225.82 3.54Q226.41 3.54 226.48 3.54L226.48 3.54L226.48 3.54Q226.81 3.54 227.23 3.53L227.23 3.53L227.23 3.53Q227.64 3.51 227.74 3.51L227.74 3.51L227.74 3.51Q227.98 3.51 228.07 3.56L228.07 3.56L228.07 3.56Q228.16 3.61 228.16 3.75L228.16 3.75L228.16 3.75Q228.16 3.81 228.08 3.86L228.08 3.86L228.08 3.86Q228.00 3.91 227.92 3.94L227.92 3.94L227.92 3.94Q227.84 3.98 227.75 4.00L227.75 4.00L227.67 4.03L227.67 4.03Q227.21 4.28 227.21 5.61L227.21 5.61L227.21 6.15L227.21 6.15Q227.21 7.21 227.13 9.83L227.13 9.83L227.13 9.83Q227.05 12.46 227.05 13.08L227.05 13.08L227.05 13.36L227.05 13.36Q227.05 13.68 226.86 13.68L226.86 13.68L226.86 13.68Q226.73 13.68 226.63 13.58L226.63 13.58L226.63 13.58Q221.98 8.19 221.08 7.17L221.08 7.17L221.08 7.17Q220.18 6.16 220.08 6.16L220.08 6.16L220.08 6.16Q219.94 6.16 219.94 7.11L219.94 7.11L219.94 7.11Q219.94 8.44 219.88 9.97L219.88 9.97L219.88 9.97Q219.83 11.51 219.83 11.65L219.83 11.65L219.83 11.65Q219.83 12.28 220.05 12.61L220.05 12.61L220.05 12.61Q220.26 12.94 220.51 12.98L220.51 12.98L220.51 12.98Q220.77 13.02 220.98 13.07L220.98 13.07L220.98 13.07Q221.20 13.12 221.20 13.26L221.20 13.26L221.20 13.26Q221.20 13.41 221.15 13.45L221.15 13.45L221.15 13.45Q221.10 13.50 220.98 13.50L220.98 13.50L220.98 13.50Q220.88 13.50 220.54 13.48L220.54 13.48L220.54 13.48Q220.19 13.47 219.48 13.47L219.48 13.47L219.48 13.47Q219.35 13.47 218.96 13.48L218.96 13.48L218.96 13.48Q218.57 13.50 218.29 13.50L218.29 13.50L218.29 13.50Q217.98 13.50 217.98 13.27L217.98 13.27L217.98 13.27Q217.98 13.15 218.16 13.11L218.16 13.11L218.16 13.11Q218.34 13.08 218.61 12.89L218.61 12.89L218.61 12.89Q218.88 12.71 219.02 12.21L219.02 12.21L219.02 12.21Q219.10 11.89 219.23 9.60L219.23 9.60L219.23 9.60Q219.35 7.32 219.35 6.45L219.35 6.45L219.35 6.45Q219.35 5.25 219.02 4.65L219.02 4.65L219.02 4.65Q218.68 4.06 217.92 3.98L217.92 3.98L217.92 3.98Q217.74 3.96 217.74 3.77ZM236.68 4.87L236.68 4.87L236.68 4.87Q236.68 4.63 237.13 4.33L237.13 4.33L237.13 4.33Q237.58 4.02 238.14 4.02L238.14 4.02L238.14 4.02Q238.90 4.02 239.46 4.44L239.46 4.44L239.46 4.44Q240.02 4.86 240.02 5.61L240.02 5.61L240.02 5.61Q240.02 6.08 239.71 6.66L239.71 6.66L239.71 6.66Q239.40 7.25 239.04 7.73L239.04 7.73L239.04 7.73Q238.67 8.20 238.36 8.82L238.36 8.82L238.36 8.82Q238.06 9.44 238.06 9.93L238.06 9.93L238.06 9.93Q238.06 10.08 238.09 10.30L238.09 10.30L238.09 10.30Q238.13 10.51 238.13 10.57L238.13 10.57L238.13 10.57Q238.13 10.71 238.01 10.71L238.01 10.71L238.01 10.71Q237.80 10.71 237.69 10.32L237.69 10.32L237.69 10.32Q237.57 9.93 237.57 9.60L237.57 9.60L237.57 9.60Q237.57 9.10 238.21 7.64L238.21 7.64L238.21 7.64Q238.85 6.19 238.85 5.77L238.85 5.77L238.85 5.77Q238.85 5.22 238.41 4.93L238.41 4.93L238.41 4.93Q237.96 4.65 237.58 4.65L237.58 4.65L237.58 4.65Q237.33 4.65 237.08 4.82L237.08 4.82L237.08 4.82Q236.82 5.00 236.81 5.00L236.81 5.00L236.81 5.00Q236.68 5.00 236.68 4.87ZM236.99 12.61L236.99 12.61L236.99 12.61Q236.99 12.47 237.50 12.04L237.50 12.04L237.50 12.04Q237.55 12.00 237.66 11.87L237.66 11.87L237.66 11.87Q237.78 11.73 237.87 11.66L237.87 11.66L237.87 11.66Q237.96 11.59 238.04 11.59L238.04 11.59L238.04 11.59Q238.10 11.59 238.21 11.70L238.21 11.70L238.21 11.70Q238.32 11.80 238.43 11.94L238.43 11.94L238.53 12.08L238.67 12.19L238.67 12.19Q238.81 12.31 238.91 12.41L238.91 12.41L238.91 12.41Q239.01 12.52 239.01 12.57L239.01 12.57L239.01 12.57Q239.01 12.68 238.93 12.77L238.93 12.77L238.93 12.77Q238.85 12.85 238.71 12.94L238.71 12.94L238.71 12.94Q238.57 13.03 238.53 13.08L238.53 13.08L238.53 13.08Q238.48 13.13 238.37 13.27L238.37 13.27L238.37 13.27Q238.27 13.41 238.18 13.49L238.18 13.49L238.18 13.49Q238.10 13.57 238.01 13.57L238.01 13.57L238.01 13.57Q237.93 13.57 237.76 13.41L237.76 13.41L237.76 13.41Q237.58 13.26 237.45 13.10L237.45 13.10L237.45 13.10Q237.41 13.06 237.20 12.89L237.20 12.89L237.20 12.89Q236.99 12.73 236.99 12.61Z"></path></g></svg>